<?xml version="1.0" encoding="UTF-8" standalone="no"?>
<svg
   xmlns:dc="http://purl.org/dc/elements/1.1/"
   xmlns:cc="http://creativecommons.org/ns#"
   xmlns:rdf="http://www.w3.org/1999/02/22-rdf-syntax-ns#"
   xmlns:svg="http://www.w3.org/2000/svg"
   xmlns="http://www.w3.org/2000/svg"
   id="svg3477"
   xml:space="preserve"
   enable-background="new 0 0 1052.231 1321.896"
   viewBox="0 0 1052.231 1321.896"
   height="1321.896px"
   width="1052.231px"
   y="0px"
   x="0px"
   version="1.1"><metadata
     id="metadata3578"><rdf:RDF><cc:Work
         rdf:about=""><dc:format>image/svg+xml</dc:format><dc:type
           rdf:resource="http://purl.org/dc/dcmitype/StillImage" /><dc:title></dc:title></cc:Work></rdf:RDF></metadata><defs
     id="defs3576" /><g
     id="Layer_1" /><g
     id="Layer_2"><path
       id="path3481"
       d="M735.085,655.166c-27.164,25.627-80.111,74.355-101.824,93.979   c-32.621-116.416-84.113-165.561-86.943-167.721c-8.902-6.81-21.65-5.102-28.492,3.828c-6.805,8.93-5.096,21.681,3.836,28.497   c0.578,0.468,46.291,45.396,74.602,154.999c-12.52,8.166-23.902,17.207-34.08,26.652c-0.934,0.783-1.941,1.742-3.146,2.932   c-35.758,35.641-86.006,21.24-105.797-0.289c-0.043-0.041-0.076-0.07-0.112-0.115c-13.861-16.816-29.897-34.305-47.559-50.508   c3.408-14.658-1.383-14.721,8.903-25.336c7.951-5.348,10.091-16.13,4.761-24.082c-5.352-7.973-16.105-10.118-24.099-4.758   c-10.281,9.455-11.568,12.089-18.04,30.535c-37.528-27.896-29.206-34.228-88.862-75.779c-10.562-3.832-22.206,1.631-26.048,12.205   c-3.851,10.549,1.623,22.182,12.181,26.038c100.962,82.03,117.255,97.53,161.888,155.876c0.391,0.529,0.78,1.049,1.355,1.893   c8.358,12.086,34.327,56.666,31.591,139.981c-0.021,0.654-0.021,1.139-0.04,1.775c-2.599,102.275-7.92,235.562-18.132,244.793   c-16.711,15.115,135.842,24.682,111.838,0c-14.949-15.381-19.154-152.496-20.199-253.518c-0.033-6.111,0.389-87.786,40.441-134.521   c1.564-1.803,3.143-3.586,4.826-5.371c14.25-17.297,24.041-26.312,40.295-40.773c0.053-0.037,0.113-0.076,0.17-0.117   c28.402-21.49,108.25-86.617,134.588-111.497c8.064-7.598,8.541-20.573,0.814-28.734   C756.13,647.848,743.255,647.453,735.085,655.166z M542.462,951.663c0.01,0.02,0.033,0.107,0.033,0.131l0.182,24.732   C542.589,967.931,542.515,959.638,542.462,951.663z"
       fill="#6D4B00" /><path
       d="M218.443,268.76c-5.262-7.022-19.205-25.886-19.562-28.857   c-0.44-3.668,1.274-6.842-1.617-9.753c-2.895-2.917-12.28,0.92-8.963,8.896c3.32,7.972,22.43,27.365,22.43,27.365   s-21.835-18.113-39.566-13.749c-17.736,4.363-31.882,26.304-31.882,26.304s23.682,12.442,42.201,1.398   c18.524-11.04,31.863-10.347,31.863-10.347l1.801,2.191c-11.116,10.183-22.315,6.823-31.347,28.972   c-9.3,22.817,0.268,39.504,11.292,50.612c21.94,22.096,65.499,36.648,95.567,19.992c4.008-2.223,6.904-10.63,10.846-14.544   c3.945-3.918,12.796-5.54,15.403-11.521c13.056-29.918-4.587-79.325-20.084-94.929c-10.933-11.015-32.389-20.479-51.376-12.53   C227.825,245.638,227.65,257.854,218.443,268.76z"
       fill="#2D7F17"
              id="apple_2_" /><path
       d="M513.989,316.423   c-2.172-3.223-5.553-6.604-2.238-8.639c9.25-4.23,18.169-1.588,29.1-1.9c10.721-0.311,21.926,3.04,32.318,11.313   c51.026-18.053,66.096,23.155,100.425,22.863c22.577-0.192,65.702,17.763,77.794,44.952c11.372,24.604,3.707,57.021-16.762,74.793   c-22.092,19.187-53.188,31.537-90.821,6.334c-30.94-20.711-25.452-49.665-39.067-76.187c-28.779-32.691-33.52-42.763-34.74-66.6   c-8.899-5.772-15.275-7.934-28.232-8.961C529.055,313.391,524.634,315.935,513.989,316.423z"
       fill="#2D7F17"
       id="path3848_2_" /><path
       id="path3485"
       d="M646.908,683.274l16.408-10.412l1.114-0.783l2.553-1.548l2.705-1.709l2.068-1.069l2.699-1.406l1.763-1.39   l0.804-1.107l0.163-0.482l1.108-0.459l2.71-1.073l2.861-1.862l1.924-2.188l0.489-0.785l0.782-0.147l0.634,0.002l0.318,0.008   l8.267-3.708l6.699-4.989l4.323-4.214l1.595-1.875l7.156-3.241l4.951-3.902l3.04-3.286l0.809-1.412l7.771-2.917l5.098-3.094   l2.724-2.35l0.802-0.781l5.231-1.365l4.764-2.469l4.475-3.114l3.512-3.434l2.887-3.45l2.236-2.822l1.297-1.887l0.483-0.783   l1.269-0.604l3.18-1.242l4.13-1.85l3.979-2.009l3.505-3.117l3.539-4.393l2.593-4.093l0.969-1.567l2.998-0.129l3.335-0.751   l2.864-1.231l3.016-1.388l2.382-1.392l1.921-1.248l1.271-0.933l0.48-0.466l2.888-3.446l1.781-3.617l1.155-3.626l0.199-3.642   l-0.436-3.635l-0.908-3.489l-0.141-0.339l-0.144-0.561l-1.39-3.333l-1.536-3.18l-1.707-3.022l-2.03-2.714l-1.392-1.903   c3.534-2.066,7.104-4.548,9.754-5.874l6.688-3.402l7.626-3.389l8.428-3.542l8.891-3.692l9.689-3.53l10.162-3.359l10.943-3.204   l11.104-2.713l4.025-0.896l0.562,1.416l1.395,2.39l1.26,0.645l0.958-0.619l0.81-1.416l0.486-1.411l0.336-1.268l0.159-0.468   l0.958-0.312l1.892,0.024l1.659,0.579l0.086,1.24l-0.169,1.415l0.133,1.744l0.281,0.874l-0.001,0.023l0.461,1.429l0.774,1.441   l0.774,1.427l2.027,2.084l1.1,0.806l2.367,0.808l2.53,0.35l1.874,0.161l-0.93,1.797l-0.191,2.375l0.333,0.253l-0.048,0.639   l2.514,1.927l3.806-0.589l2.714-3.294l1.561-3.329l0.073,0.559l0.251,0.599l0.04,0.288l0.456,1.113l0.628,0.959l1.1,0.803   l1.266,0.654l1.731,0.49l1.581,0.017l1.428-0.772l0.971-1.254l0.806-1.73l0.176-1.739l0.338-1.574l0.16-1.109l0.001-0.317   l1.981,5.873l1.735,1.445l1.579,0.019l1.434-0.775l1.592-1.564l1.134-1.727l0.812-1.73l0.38-0.737l-0.224,2.849l0.305,0.528   l-0.026,0.374l3.414,5.732l1.898,0.018l1.436-0.778l1.124-1.728l0.812-2.044l0.347-2.213l0.341-1.889l0.014-1.272l0.008-0.622   l1.091,1.438l1.414,1.122l1.409,1.134l1.417,0.803l1.257,0.956l1.104,0.492l0.782,0.485l0.31,0.005l2.051,0.18l1.113-0.781   l0.174-1.102l-0.298-1.586l-0.615-1.915l-0.004-0.012l-0.285-0.878l-0.772-1.429l-0.557-0.797l1.2-1.472l0.17-1.1l-0.33-0.613   l0.046-0.29l-0.771-1.437l-1.102-1.118l-1.567-0.957l-1.263-0.652l-0.382-0.168l1.481-0.67l0.02-1.582l-0.297-0.303l0.01-0.589   l-1.829-1.866l0.097-0.268l0.319-0.309l0.799-0.467l1.427-0.152l2.063-0.132l2.997,0.508l2.523,0.027l1.112-0.457l0.168-1.103   l-0.328-0.608l0.046-0.293l-0.774-1.435l-1.096-1.437l-1.618-1.655l0.354,0.003l2.217,0.029l4.272-0.113l2.218-0.604l0.809-1.416   l-0.29-2.217l-0.531-1.667l-0.517-1.618l-1.081-2.379l-1.235-2.227l-0.865-1.126l0.528,0.115l1.429-0.148l1.76-1.398l1.148-3.626   l-0.451-2.379l-0.143-0.144l-0.141-0.756l-1.724-1.735l-2.833-1.303l-3.306-0.822l-3.158-0.668l-2.84-0.358l-0.297-0.003   l0.43-0.204l1.765-2.041l0.515-3.317l-0.313-0.717l0.029-0.179l-0.776-1.749l-1.723-0.81l-2.217-0.343l-2.368,0.13l-2.698,0.449   l-2.067,0.453l-1.196,0.314l1.689-2.743l0.014-1.262l-0.283-0.692v-0.202l-0.464-1.117l-0.782-0.805l-1.263-0.645l-1.259-0.318   l-0.943-0.338l-0.789-0.164l-0.324-0.002l-5.195,1.661l0.105-0.829l-0.288-1.911l-0.263-0.695l-0.028-0.202l-0.767-2.064   l-0.926-1.907l-0.774-1.75l-0.438-0.631l0.741,0.254l1.895,0.341l2.378-0.764l2.089-2.663l0.184-2.061l-0.297-0.795l0.006-0.095   l-0.76-2.064l-1.724-2.071l-2.186-1.931l-2.198-1.609l-1.884-1.284l-1.265-0.723l1.103-1.076l0.186-1.739l-0.284-0.893l0,0   l-0.159-0.494l-0.011-0.042l0,0l-0.291-0.897l-0.306-0.637l-2.818-2.556l-2.364-1.132l-2.367-0.192l-1.745,0.458l-1.601,0.93   l-1.273,0.934l-0.643,0.943l-0.327,0.31l-3.452-1.615l-3.336,1.064l-2.39,2.026l-0.748,0.729l-0.062-0.954l-0.257-0.406   l-0.029-0.486l-1.084-1.751l-1.388-1.414l6.181-4.595l0.319-0.319l0.486-0.786l0.642-1.255l0.817-1.729l0.33-1.587l0.183-1.729   l-0.449-1.751l-0.074-0.08l-0.214-0.815l-1.252-1.278l-2.992-0.831l-2.552,1.24l-1.765,2.032l-0.638,0.946l-5.946-3.494   l3.331-4.661l0.965-0.936l0.17-1.103l-0.145-1.104l-0.21-0.296l-0.079-0.598l-0.786-1.118l-0.78-1.123l-0.621-0.958l-2.18-2.235   l-1.579-0.965l-1.729-0.499l-1.586-0.335l-1.732-0.178l-1.153,0.115l0.184-0.182l0.491-1.418l0.02-1.273l-0.285-0.874l-0.002-0.017   l-0.463-1.424l-0.619-1.286l-0.623-0.945l-0.777-0.8l-2.663-2.371l-2.675-0.823l-2.061,0.453l-1.916,1.245l-1.604,1.557   l-1.002,1.551l0.194,0.5l0.06,0.314l-0.297-0.752l0.043-0.062l-0.421-1.082l-1.249-1.91l-2.027-2.717l-2.508-2.245l-2.524-0.34   l-2.379,0.763l-1.916,1.556l-1.764,2.045l-1.282,1.878l-0.81,1.416l-0.221,0.431l-0.266-1.594l-0.218-0.504l-0.07-0.396   l-0.765-1.75l-1.258-0.959l-1.107-0.49l-1.103-0.171l-0.95,0.305l-0.795,0.155l-0.143,0.141l-2.062-0.175l-0.955,0.617   l-0.333,1.255l0.301,1.585l0.205,0.47l0.079,0.424l0.773,1.753l0.609,1.59l0.48,0.68l-4.262-0.353l-2.857,1.227l-1.765,1.726   l-0.481,0.786l-2.607-6.519l-1.565-1.59l-1.576-0.656l-1.431,0.142l-1.115,0.786l-1.124,1.092l-0.637,0.942l-0.486,0.795   l-0.17,0.466l-3.093-5.729l-5.509-2.434l-3.933-0.535l-2.697,0.765l-1.604,1.564l-0.81,2.045l-0.343,1.891l-0.015,1.591   l-0.008,0.628l-3.775-1.626l-2.533-0.031l-1.747,0.774l-0.973,1.571l-0.339,1.895l-0.18,1.734l0.144,1.43l0.155,0.476l-2.374,0.134   l-1.27,0.304l-0.485,0.784l0.149,0.794l0.223,0.52l0.07,0.38l0.459,1.116l0.78,1.121l0.938,1.271l1.086,1.43l0.938,1.279   l1.415,1.133l1.249,0.961l1.415,0.807l1.101,0.483l1.101,0.491l0.631,0.319l0.221,0.011l0.858,4.013l-2.815-2.556l-2.509-1.62   l-2.053-0.488l-1.898-0.026l-1.588,0.617l-0.954,0.616l-0.968,0.943l-0.486,1.1l0.3,1.584l0.188,0.361l0.098,0.538l1.08,2.07   l1.56,2.235l1.715,2.078l1.562,1.901l0.807,0.832l-5.556,1.394l-0.975,2.206l0.338,0.765l-0.054,0.126l0.775,1.748l1.247,1.287   l0.787,0.483l9.896,6.15l-0.312,0.498l-0.645,1.573l0.294,1.587l0.135,0.071l0.149,0.828l2.053,1.131l2.202,0.34l0.753,0.119   l-0.117,1.517l0.603,1.91l0.004,0.005l0.283,0.894l0.938,0.959l1.266,0.642l1.258,0.334l1.104,0.167l0.793-0.146l0.316,0.003   l2.494-3.332l-0.236,1.513l-2.31,8.519l-2.953,8.812l-3.741,9.295l-4.226,9.436l-4.367,9.281l-4.697,9.278l-4.688,8.646   l-4.514,8.169l-4.365,7.383c0,0-3.478,6.055-3.699,6.431c-0.362,0.632-0.75,1.316-1.139,2.026l-0.378-0.385l-3.93-3.048   l-4.858-3.064l-5.993-2.31l-6.467-0.547l-7.457,1.658l-7.32,4.654l-1.44,1.409l-3.213,3.764l-1.219,2.062   c-1.029-0.274-2.135-0.035-2.921,0.742l-0.158,0.148c-0.618,0.596-0.93,1.413-0.914,2.234l-1.396,5.324   c-0.179,0.671-0.102,1.362,0.175,1.993l-3.224,1.93l-4.456,3.431l-3.053,3.598l-2.098,3.932l-1.068,2.337   c-0.96-0.09-1.929,0.211-2.587,0.945l-2.089,2.347c-0.801,0.899-0.995,2.199-0.496,3.294l0.39,0.84l-2.189,1.528l-2.708,2.338   l-2.564,2.82l-2.563,3.451l-1.676,3.689c-1.004,0.039-1.942,0.558-2.487,1.446l-1.445,2.356c-0.4,0.659-0.553,1.457-0.392,2.218   l0.259,1.214l-0.89,0.866l-2.241,2.494l-2.247,3.146l-2.261,3.764l-1.628,4.41l-0.021,0.112c-1.392-0.185-2.727,0.577-3.24,1.89   l-0.965,2.52c-0.246,0.62-0.268,1.289-0.102,1.926l0.236,0.817l-0.907,0.745l-2.401,2.032l-2.396,2.341l-1.934,2.826l-0.262,0.768   c-1.161,0.188-2.155,1.008-2.464,2.194l-0.663,2.523c-0.104,0.384-0.125,0.779-0.079,1.175l0.023,0.15l-1.382,0.72l-2.229,1.556   l-2.241,2.186l-2.097,2.671l-1.613,3.143l-0.826,3.625l-0.489,0.789l-1.438,2.042l-2.092,2.657l-1.93,2.833l-0.965,1.869   l-1.134,2.05l-0.811,1.418l-0.314,0.631l-1.116,0.775l-2.57,2.499l-2.568,3.767l-1.316,4.73l-0.333,1.571l-0.494,1.414   l-0.332,0.953l-0.155,0.476l-10.307,16.636l0.51,0.53l-0.233,0.372L646.908,683.274z M838.443,435.603l0.071,0.039l0.271,0.843   l1.792,1.017l2.093,0.686l0.965,0.268l0.47,0.131l-0.371,1.501l-3.328,9.351l-5.104,11.975l-7.35,14.461l-10.087,16.816   l-10.542,15.079l3.201-6.375l4.868-10.375l3.946-9.694l3.364-8.727l2.448-8.041l2.328-7.238l1.42-6.569l1.146-5.597l0.689-5.103   l0.385-2.87l1.411,0.878l2.068,0.062l1.995-1.213l1.206-1.333l0.385-0.75L838.443,435.603z M855.35,447.578l-1.665,1.513   l-1.083,0.521l-1.051,1.164l-1.911,2.791l-1.146,2.593l0.579,0.329l-0.244,0.555l1.795,1.016l1.811,0.359l-1.543,1.421   l-5.745,5.359l-5.572,5.825l-2.977,3.286l1.422-2.323l3.624-6.68l3.307-6.647l3.014-6.329l2.06-6.282l1.122-4.034l2.456,2.745   l2.246,1.547L855.35,447.578z M875.135,485.642l1.401,2.782l1.825,1.657l1.746,0.063l0.571-0.282l-0.357,1.126l0.417,1.876   l0.221,0.331l0.119,0.548l1.019,1.535l1.393,0.97l-3.8,1.107l-7.486,2.27l-7.775,2.608l-8.552,3.117l-8.697,3.615l-9.299,3.95   l-9.421,4.738l-9.402,5.064l-9.537,5.547l-4.806,3.119l3.825-3.45l10.612-9.4l12.306-10.268l13.741-10.184l14.396-9.905   l12.954-7.466l0.124,0.002l1.112,0.1l0.498-0.024l0.071,1.479l0.446,2.51l0.28,0.559L875.135,485.642z M846.61,475.824l7.889-7.502   l0.499,0.919l1.006,1.135l-7.512,7.792l-11.259,15.449l-29.5,26.736l12.184-15.005l14.064-16.222L846.61,475.824z M861.487,475.716   l1.494,1.353l0.989,0.587l1.101,0.708l-5.173,2.875l-8.567,6.125l-3.998,3.73l0.34-0.437l9.554-11.561l3.987-4.198l0.354,0.319   L861.487,475.716z M872.66,375.778l-0.64,0.704l0.448-0.917l0.096-0.163L872.66,375.778z"
       fill="#2D7F17" /><path
       id="path3487"
       d="M310.946,447.892c-8.711,1.522-14.62,8.879-15.214,17.328c-8.188,5.357-12.865,15.258-11.072,25.513   c1.457,8.337,6.864,14.948,13.953,18.369c-0.267,8.563,0.434,18.578,3.918,25.539c-12.174-5.146-24.275-10.527-35.184-15.487   c3.813-13.75,0.706-27.989-7.678-38.745c1.218-1.574,2.313-3.268,3.104-5.191c4.749-11.603-0.819-24.865-12.423-29.612   c-1.929-0.788-3.899-1.196-5.877-1.444c-2.002-15.154-11.675-28.873-26.834-35.076c-22.55-9.23-48.298,1.57-57.526,24.116   c-0.305,0.75-1.53,2.327-0.737,2.25c3.107,8.592-18.047,4.227-21.678,13.1c-0.271,0.667-0.394,1.333-0.597,1.987   c-18.103-0.84-35.605,9.447-42.864,27.188c-5.792,14.156-3.689,29.55,4.25,41.355c-1.559,1.923-2.961,4.018-3.946,6.427   c-3.558,8.694-1.935,18.143,3.328,25.153c-2.224,2.925-4.193,6.077-5.654,9.642c-9.223,22.535,1.566,48.293,24.112,57.527   c11.178,4.568,23.051,4.057,33.388-0.201c2.686,3.262,6.107,6.01,10.304,7.729c13.062,5.346,27.833-0.578,33.823-13.156   c19.519,2.762,39.164-7.748,46.972-26.834c0.373-0.918,0.479-1.855,0.797-2.775c27.175,7.285,74.33,20.863,97.932,33.252   c36.724-26.663,25.979-48.936,24.36-59.526c-7.808-1.433-18.952-5.042-31.446-9.688c-11.229-10.216-12.492-27.271-12.038-37.538   c7.356-3.538,12.522-10.359,13.933-18.31c7.125-1.493,11.863-8.303,10.605-15.494c-1.095-6.201-6.247-10.399-12.233-10.896   c-0.028-0.417,0.105-0.784,0.043-1.2C330.949,452.947,321.174,446.093,310.946,447.892z M301.777,568.622l-49.823-10.251   c0.773-1.057,1.665-2.014,2.185-3.287c1.889-4.615,1.282-9.5-0.914-13.575L301.777,568.622z"
       fill="#2D7F17" /><path
       id="path3489"
       d="M637.254,502.525c2.89-3.491,4.087-12.469,3.104-17.189c0,0-3.891,12.257-7.616,12.725   c2.298-7.257-0.394-10.037-2.084-11.673c-0.86,3.584-4.155,5.291-4.155,5.291c-1.138-4.217,1.293-8.401-3.159-11.74   c-0.639,7.229-0.341,10.629-2.548,13.235c-6.239-1.158-6.595-0.919-8.381-4.825c-0.932,3.798-0.33,7.984,1.819,11.626   c-2.562-0.609-3.291-5.249-8.284-6.004c0,0,6.708,4.884,5.012,13.708c-0.385,0.059-0.771,0.117-1.161,0.18   c-57.805,9.465-34.949,63.264-24.058,75.803c10.888,12.549,20.516,36.968,26.795,44.855c12.005,15.104,25.98,5.771,27.808,0.015   c1.829-5.751,17.428-34.951,20.664-40.805c23.311-37.013,12.117-74.876-26.322-80.433c9.003-3.825,14.459-5.397,15.458-11.142   C650.147,496.151,642.893,504.315,637.254,502.525z"
       fill="#2D7F17" /><g
              id="Fruits_6_"><path
         d="M404.675,150.213c2.602-5.812,5.892-11.95,9.605-16.146    c-8.902,0.84-16.79,15.791-16.79,15.791s-0.13-17.728,1.65-24.422c-6.93,7.155-8.989,23.296-8.989,23.296    s-5.487-11.974-6.781-18.781c-0.877-4.622,0.261-15.493,0.261-15.493l-8.409,1.023c0,0,0.273,10.981,1.883,16.266    c1.869,6.113,8.535,17.934,8.535,17.934s-14.994-6.003-25.132-4.864c6.744,1.751,13.873,6.996,19.578,12.113    c-3.985,0.048-8.003,0.617-11.973,1.752c-26.848,7.688-41.609,38.408-32.959,68.608c8.649,30.212,37.429,48.459,64.277,40.772    c8.197-2.347,17.275-3.14,23.682-7.67c8.114-0.271,16.818-3.925,24.931-6.247c26.849-7.687,41.602-38.401,32.952-68.612    c-8.647-30.201-37.422-48.458-64.271-40.769C412.376,146.008,408.344,147.857,404.675,150.213z"
         fill="#2D7F17"
                  id="tomato_2_" /></g><path
       id="path3493"
       d="M465.026,762.016c0,0,34.526-0.854,37.378-30.841c0,0,25.88,14.466,45.109-14.622   c0,0,16.68-28.969-10.695-45.302c0,0-9.492-6.497-26.205,4.73l-1.129,1.032l0,0c0,0-13.072-43.604-51.317-55.661   c0,0,8.139,1.549,17.696-11.568c0,0,10.971-21.144,11.085-21.428c0,0-16.309,5.1-21.29,5.438   c-4.98,0.341-25.277,6.694-25.832,26.723c0,0-21.048,1.379-24.246,24.021c0,0,1.104,19.371-0.689,21.705l-0.824,4.231   c0,0,39.087-15.903,29.89-42.187c0,0,37.243,6.788,21.901,75.939c0,0-25.716-12.998-35.75,16.206   C430.112,720.434,423.171,757.137,465.026,762.016z M469.707,702.194c2.652-9.164,13.285-53.785-22.231-78.549   c0,0,36.971-1.113,58.908,53.943c0.102,0.255,0.199,0.518,0.293,0.757c-4.736-0.404-22.567-0.473-26.488,20.785l0.113,2.874   C480.301,702.005,475.315,700.187,469.707,702.194z"
       fill="#2D7F17" /><g
              id="Fruits_2_"><path
         d="M611.913,162.005c28.021,15.283,39.74,49.272,26.137,77.353    c-14.035,28.973-49.712,40.693-79.688,26.172c-29.975-14.521-42.892-49.784-28.854-78.757    c13.87-28.629,48.868-40.401,78.613-26.676c2.604-8.172,7.407-23.725,6.93-25.947c-0.658-3.04-2.885-5.098-1.378-8.206    c1.506-3.111,10.017-2.615,9.553,4.629c-0.465,7.253-10.368,27.901-10.368,27.901s12.429-20.373,27.729-21.747    c15.303-1.368,32.554,12.225,32.554,12.225s-15.444,16.378-33.198,12.64C623.431,158.129,613.259,161.517,611.913,162.005z"
         fill="#2D7F17"
                  id="orange_2_" /></g><g
              id="Fruits_1_"><path
         d="M376.747,390.669c17.654,16.979,47.203,19.858,71.817,5.34    c23.955-14.132,35.737-40.317,30.532-63.518l0,0c0.562-1.105,1.234-2.461,1.97-3.821c1.789-3.283,1.235-8.712-1.71-13.715    c-2.584-4.368-6.338-7.291-9.739-7.977c-0.807-0.162-3.438-0.299-5.873-0.398c-17.801-15.67-46.33-17.959-70.219-3.868    c-24.625,14.53-36.396,41.801-30.053,65.478c-0.197,0.946-0.494,1.979-0.965,3.037c-1.793,4.054-1.056,11.173-0.133,12.742    c0.926,1.574,6.824,5.45,11.186,5.988C374.729,390.099,375.794,390.361,376.747,390.669z"
         fill="#2D7F17"
                  id="lemon_2_" /></g><g
       id="g3499"><path
         id="path3501"
         d="M504.994,492.117c0,0,8.72-13.829,27.652-18.016c18.926-4.185,35.236-17.373,27.588-36.22    c-5.424-8.35-18.744,0.957-13.137,10.159c5.604,9.198-7.713,11.425-15.584,11.575c-7.879,0.142-12.461-0.311-14.25-3.42    c-1.785-3.114-21.308-24.358-21.308-24.358l-12.146,38.78L504.994,492.117z"
         fill="#2D7F17" /><path
         id="path3503"
         d="M507.335,423.537c10.492,1.862,22.378,26.758,15.154,45.213c13.201,8.943,14.318,24.436,4.887,41.413    c15.471,16.385,1.371,44.177-9.803,47.972c-51.352,25.24-126.727-9.608-134.109-21.55c-6.835-11.082-5.295-15.717-0.92-21.64    c-0.329-0.198-0.822-0.911-1.306-1.667c-0.401-0.548-0.87-1.215-1.364-1.973c-0.013-0.02-0.039-0.048-0.054-0.056    c0.008,0,0.015,0.008,0.024,0.014c-3.397-5.261-7.956-15.042-0.576-21.868c0.739-0.528,1.565-1.085,2.423-1.66    c-3.812-7.325-6.469-16.001-3.664-22.613C383.52,452.203,452.757,406.358,507.335,423.537z"
         fill="#2D7F17" /></g><g
       id="g3505"><g
         id="Your_Icon_2_"><g
           id="g3508"><path
             id="path3510"
             d="M730.499,204.09c-1.699-0.266-3.43-0.446-5.089-0.47c1.792,0.152,3.496,0.326,5.027,0.505      C730.459,204.112,730.48,204.104,730.499,204.09z"
             fill="#2D7F17" /><path
             id="path3512"
             d="M740.928,255.828c0.659-4.851,1.52-10.879,3.748-15.932c-0.301-0.086-0.595-0.228-0.826-0.486      c-2.532-2.77-14.52-14.649-20.86-14.924c-0.274,0.076-0.521,0.055-0.742-0.01c-0.897,0.1-1.651,0.485-2.202,1.246      c-4.791,6.641-5.615,15.202-4.532,23.173c0.06,0.451-0.088,0.851-0.323,1.195c8.912,2.206,18.983,13.079,25.147,20.517      C740.084,265.631,740.275,260.61,740.928,255.828z"
             fill="#2D7F17" /><path
             id="path3514"
             d="M717.661,206.042c-2.084,2.314-3.298,5.219-3.789,8.282c1.817,1.936,3.289,4.918,4.607,7.714      c0.523-0.363,1.078-0.681,1.667-0.966c0.589-0.283,1.232-0.443,1.887-0.519c1.133-5.555,3.476-13.428,8.401-16.432      c-1.528-0.176-3.235-0.356-5.035-0.509C722.251,203.57,719.366,204.133,717.661,206.042z"
             fill="#2D7F17" /><path
             id="path3516"
             d="M715.165,225.388c-0.894-1.785-1.838-3.547-2.799-5.306c-1.594-2.907-3.851-7.8-7.252-1.723      c-1.207,2.161-2.158,4.316-2.967,6.633c-2.269,6.55-4.154,13.231-5.688,19.985c-0.032,0.169-0.126,0.349-0.259,0.536      c3.497,2.174,6.949,5.818,8.677,7.411c1.873-1.961,3.981-2.947,6.234-3.167C710.18,242.706,710.484,231.927,715.165,225.388z"
             fill="#2D7F17" /><path
             id="path3518"
             d="M692.767,246.174c-2.586,3.869-2.447,10.528-2.349,14.943c0.196,8.614,3.239,17.113,8.97,23.496      c-1.687-11.43-0.299-23.339,3.773-29.547c0.254-0.382,0.515-0.707,0.773-1.042c-1.027,0.012-2.272-0.19-2.699-0.564      c-1.776-1.533-3.557-3.066-5.307-4.624c-0.606-0.55-1.228-1.086-1.834-1.623c-0.348-0.305-0.864-0.65-1.209-1.044      L692.767,246.174z"
             fill="#2D7F17" /><path
             id="path3520"
             d="M760.763,208.034c6.295-1.728,14.874,3.313,20.053,6.122c1.433,0.781,2.858,1.595,4.274,2.428      c-7.661-9.732-19.733-14.998-31.753-17.856c-3.029-0.714-13.662-4.876-11.958,1.481c0.367,1.39,0.917,2.703,1.562,3.967      c4.811,1.584,9.661,4.354,13.117,7.052C757.335,209.708,758.889,208.554,760.763,208.034z"
             fill="#2D7F17" /><path
             id="path3522"
             d="M725.815,282.042c-4.121,0.529-4.742,5.479-5.125,8.803c-0.781,6.892,1,13.799,4.539,19.718      c0.057-0.006,0.11,0.008,0.166,0.005c-0.028,0.004-0.083,0.043-0.126,0.067c1.231,2.053,2.676,3.969,4.307,5.729      c7.627-0.194,15.489,0.884,22.881,3.248c-5.754-8.602-8.317-19.307-5.444-28.916c0.23-0.793,0.538-1.486,0.885-2.114      c-3.416-2.241-7.875-3.864-11.533-4.958C733.253,282.682,729.084,281.61,725.815,282.042z"
             fill="#2D7F17" /><path
             id="path3524"
             d="M721.884,313.194c-9.567-0.038-15.999-7.452-19.622-17.164c-3.576-2.674-13.339-9.614-12.216-3.089      c0.985,5.749,3.597,10.583,7.571,14.867c4.367,4.703,9.317,8.926,14.796,12.277c0.065,0.039,0.092,0.085,0.152,0.13      c3.443-1.984,8.285-3.006,11.938-3.474c-0.919-1.135-1.783-2.314-2.584-3.559C721.909,313.186,721.898,313.191,721.884,313.194z      "
             fill="#2D7F17" /><path
             id="path3526"
             d="M746.831,236.062c1.512-2.16,3.445-3.917,5.938-5.054c-1.369-4.455-1.123-10.853,0.948-15.821      c-3.789-2.935-9.218-5.719-13.797-7.145c-0.028-0.023-0.074-0.009-0.095-0.033c0,0-0.002-0.002-0.003-0.007      c-0.854-0.262-1.68-0.49-2.453-0.65c-8.413-1.747-10.814,6.591-12.088,13.495c3.571,0.876,7.283,3.31,9.545,4.882      C739.159,228.761,743.212,232.195,746.831,236.062z"
             fill="#2D7F17" /><path
             id="path3528"
             d="M803.17,267.322c-1.883-4.76-3.617-10.697-7.053-14.602c-6.066-6.889-17.978,10.589-20.454,15.146      c-3.28,6.018-6.168,13.553-5.199,20.649c1.17,0.599,2.232,1.183,3.11,1.713c6.488,3.905,12.552,8.544,17.517,14.091      c0.629-9.563,2.797-19.573,7.414-27.718c0.856-1.506,3.208-4.739,6.167-8.005C804.023,268.411,803.445,268.015,803.17,267.322z"
             fill="#2D7F17" /><path
             id="path3530"
             d="M798.272,324.608c-1.338,0.933-2.708,1.844-4.195,2.705c-4.66,2.706-9.744,5.513-15.028,7.952      c-0.327,0.267-0.709,0.431-1.141,0.505c-3.34,1.494-6.758,2.802-10.219,3.832c0.146,0.186,0.262,0.375,0.287,0.574      c0.557,4.59,10.181,2.896,12.758,1.642c4.802-2.335,9.524-4.887,14.116-7.628c4.808-2.867,10.957-5.867,14.654-10.19      c2.854-3.336,3.081-10.232,3.041-14.468c-2.997,4.759-6.606,8.94-11.118,12.64C801.858,323.953,799.749,325.143,798.272,324.608      z"
             fill="#2D7F17" /><path
             id="path3532"
             d="M757.386,230.403c3.842,0.721,7.451,4.052,10.241,6.338c5.619,4.591,11.202,9.223,16.797,13.866      c2.115-1.526,4.046-2.468,5.792-2.885c-0.73-4.755-2.63-15.845-1.715-24.159c-6.701-5.349-15.882-10.717-24.116-12.443      C756.706,209.512,755.3,224.214,757.386,230.403z"
             fill="#2D7F17" /><path
             id="path3534"
             d="M794.395,219.365c-2.708,8.793-1.135,19.232,0.184,28.376c6.109,1.705,9.673,10.403,12.712,18.119      c3.202-3.126,6.742-5.811,9.758-6.417c-0.622-7.616-2.248-15.312-5.169-22.349C810.567,233.912,797.631,208.858,794.395,219.365      z"
             fill="#2D7F17" /><path
             id="path3536"
             d="M745.927,281.663c0.079,0.34-0.076,0.728-0.33,1.112c1.989,0.991,3.732,1.998,5.075,2.898      c3.919-2.405,9.843-1.249,15.03,0.737c-0.691-11.784,6.791-25.083,15.255-32.956c-7.229-6.366-15.118-15.054-23.679-18.757      C741.891,228.037,743.827,272.599,745.927,281.663z"
             fill="#2D7F17" /><path
             id="path3538"
             d="M826.844,247.648c-1.882-4.379-4.456-8.355-6.766-12.521c-2.098-3.77-2.098-5.336-5.115-1.651      c-0.081,0.11-0.227,0.192-0.371,0.261c3.865,8.562,6.276,17.689,6.966,27.07c0.27,0.3,0.528,0.62,0.765,1.024      c0.622,1.064,1.104,2.155,1.516,3.247C827.151,259.723,829.608,254.086,826.844,247.648z"
             fill="#2D7F17" /><path
             id="path3540"
             d="M718.466,282.041c3.205-6.896,14.237-4.745,23.074-1.111c-0.153-0.822-0.278-1.656-0.405-2.497      c-0.161,0.06-0.294,0.078-0.339,0.021c-5.858-7.524-12.441-15.725-20.461-20.979c-3.134-2.058-7.16-5.015-11.075-5.015      c-5.804,0.002-5.908,10.417-5.993,14.657c-0.238,12.263,1.783,37.551,16.666,42.565      C715.588,301.08,714.366,290.859,718.466,282.041z"
             fill="#2D7F17" /><path
             id="path3542"
             d="M739.924,321.107c-5.997-0.89-12.264-1.355-18.258-0.177c-2.549,0.503-14.963,2.146-7.822,6.904      c17.205,11.468,38.326,12.354,57.307,6.591c-4.521-1.521-8.701-4.116-12.32-7.441      C752.971,324.083,746.34,322.062,739.924,321.107z"
             fill="#2D7F17" /><path
             id="path3544"
             d="M813.88,303.534c3.838-8.419,10.658-21.937,8.151-31.519c-0.882-3.386-2.321-10.256-7.423-7.955      c-7.924,3.59-13.932,10.497-16.68,18.721c-2.599,7.728-4.104,15.99-4.165,24.186c0.001,0.126-0.045,0.285-0.102,0.442      c2.873,3.729,5.259,7.836,6.955,12.367C806.119,315.549,810.753,310.365,813.88,303.534z"
             fill="#2D7F17" /><path
             id="path3546"
             d="M761.63,323.441c4.527,4.444,10.264,7.545,16.908,8.25c0.072,0.007,0.101,0.038,0.166,0.054      c0.854-0.357,1.715-0.695,2.549-1.066c5.422-2.431,10.713-5.033,15.513-8.177c-3.974-11.604-13.11-21.023-23.497-27.274      c-3.75-2.26-7.758-4.679-12.014-5.854c-13.959-3.881-10.923,12.578-8.906,18.829c1.813,5.599,4.91,10.847,9.032,14.973      c0.026,0.016,0.054,0.026,0.083,0.042C761.545,323.259,761.579,323.361,761.63,323.441z"
             fill="#2D7F17" /><path
             id="path3548"
             d="M779.045,335.271c-0.379,0.17-0.755,0.334-1.138,0.504C778.34,335.695,778.722,335.531,779.045,335.271z      "
             fill="#2D7F17" /><path
             id="path3550"
             d="M761.46,323.221c-0.028-0.014-0.056-0.025-0.087-0.038c0.087,0.081,0.166,0.171,0.257,0.259      C761.579,323.361,761.545,323.259,761.46,323.221z"
             fill="#2D7F17" /><path
             id="path3552"
             d="M813.004,234.105c-0.096-0.002-0.191,0-0.291-0.01c0.379,0.833,0.753,1.685,1.096,2.529L813.004,234.105      z"
             fill="#2D7F17" /><path
             id="path3554"
             d="M725.399,310.568c-0.06,0.003-0.113-0.01-0.166-0.006c0.014,0.022,0.026,0.046,0.042,0.072      C725.317,310.609,725.37,310.57,725.399,310.568z"
             fill="#2D7F17" /><path
             id="path3556"
             d="M711.021,321.265c0.023-0.023,0.059-0.047,0.089-0.068c-0.041-0.029-0.084-0.053-0.122-0.073      L711.021,321.265z"
             fill="#2D7F17" /><path
             id="path3558"
             d="M791.579,220.954c-0.098,0.066-0.201,0.125-0.302,0.196c0.083,0.031,0.161,0.059,0.241,0.093      C791.536,221.146,791.562,221.058,791.579,220.954z"
             fill="#2D7F17" /><path
             id="path3560"
             d="M731.507,204.257c-0.335-0.058-0.666-0.113-1.008-0.167c-0.021,0.011-0.04,0.022-0.062,0.035      C730.807,204.168,731.152,204.211,731.507,204.257z"
             fill="#2D7F17" /><path
             id="path3562"
             d="M722.993,224.483c-0.248-0.011-0.515-0.042-0.745-0.009      C722.473,224.539,722.725,224.557,722.993,224.483z"
             fill="#2D7F17" /><path
             id="path3564"
             d="M712,214.978c-0.074-0.02-0.149-0.033-0.224-0.044c0.059,0.066,0.13,0.114,0.188,0.189      C711.975,215.078,711.99,215.027,712,214.978z"
             fill="#2D7F17" /><path
             id="path3566"
             d="M739.921,208.042c-0.036-0.019-0.069-0.03-0.098-0.04c0.001,0.005,0,0.009,0,0.009      C739.841,208.037,739.893,208.019,739.921,208.042z"
             fill="#2D7F17" /><path
             id="path3568"
             d="M739.118,205.574c-0.217-0.073-0.419-0.105-0.633-0.163c0.026,0.054,0.045,0.104,0.07,0.155      C738.979,205.63,739.168,205.632,739.118,205.574z"
             fill="#2D7F17" /><path
             id="path3570"
             d="M812.543,309.299c-0.001,0.069,0.001,0.164,0,0.234c0.13-0.203,0.262-0.407,0.392-0.614      C812.71,308.958,812.538,309.064,812.543,309.299z"
             fill="#2D7F17" /></g></g><path
         id="path3572"
         d="M774.152,340h-7.034c0.571,0-37.228-10.834-37.228-10.834l-15.856-6.289l-1.469-2.636l-10.304-24.198    l-2.874-11.424l-4.92-37.075l1.733-2.03l16.796-24.271l0.875-6.919c0,0,14.567-9.565,16.565-10.199s8.078,0.792,12.503,0.05    c16.327-2.735,40.283,10.258,42.149,12.409s6.263,4.289,8.071,8.984c1.808,4.695,15.779,8.454,15.779,8.454    s4.496,0.882,5.651-0.285c1.155-1.167,9.475,30.967,9.475,30.967l-2.751,4.64l-8.962,37.185l0.189,3.005l-5.461,15.415    L774.152,340z"
         fill="#2D7F17" /></g></g></svg>